<svg xmlns="http://www.w3.org/2000/svg" xmlns:xlink="http://www.w3.org/1999/xlink" width="136" height="240" viewBox="0 0 102 180"><clipPath id="a"><path transform="scale(.24)" d="M0 0h425v748.951H0z" fill-rule="evenodd"/></clipPath><g clip-path="url(#a)"><path d="M0 0h102v179.748H0z" fill="#fff"/></g><clipPath id="b"><path transform="scale(.24)" d="M0 0h425v740.035H0z" fill-rule="evenodd"/></clipPath><g clip-path="url(#b)"><path d="M55.993 6.776a5.693 5.693 0 0 1-.962 3.17 5.692 5.692 0 0 1-2.56 2.102 5.692 5.692 0 0 1-3.298.325 5.693 5.693 0 0 1-2.921-1.562A5.692 5.692 0 0 1 44.69 7.89a5.692 5.692 0 0 1 .325-3.296 5.692 5.692 0 0 1 2.101-2.561 5.693 5.693 0 0 1 3.17-.962 5.693 5.693 0 0 1 3.171.962 5.692 5.692 0 0 1 2.102 2.56 5.693 5.693 0 0 1 .434 2.184z" fill="#fab6ef"/><path d="M16.049 5.35H85.95a14.943 14.943 0 0 1 5.732 1.14 14.943 14.943 0 0 1 4.86 3.247 14.944 14.944 0 0 1 3.247 4.86 14.944 14.944 0 0 1 1.14 5.732v141.23a14.943 14.943 0 0 1-1.14 5.733 14.943 14.943 0 0 1-3.247 4.86 14.943 14.943 0 0 1-4.86 3.246 14.943 14.943 0 0 1-5.732 1.14H16.049a14.942 14.942 0 0 1-5.732-1.14 14.943 14.943 0 0 1-4.86-3.247 14.944 14.944 0 0 1-3.247-4.86 14.943 14.943 0 0 1-1.14-5.732V20.33a14.943 14.943 0 0 1 1.14-5.733 14.943 14.943 0 0 1 3.247-4.86 14.943 14.943 0 0 1 4.86-3.246 14.943 14.943 0 0 1 5.732-1.14z" fill="#bac8d3"/><path fill="none" stroke="#23445d" d="M16.049 5.35H85.95a14.943 14.943 0 0 1 5.732 1.14 14.943 14.943 0 0 1 4.86 3.247 14.944 14.944 0 0 1 3.247 4.86 14.944 14.944 0 0 1 1.14 5.732v141.23a14.943 14.943 0 0 1-1.14 5.733 14.943 14.943 0 0 1-3.247 4.86 14.943 14.943 0 0 1-4.86 3.246 14.943 14.943 0 0 1-5.732 1.14H16.049a14.942 14.942 0 0 1-5.732-1.14 14.943 14.943 0 0 1-4.86-3.247 14.944 14.944 0 0 1-3.247-4.86 14.943 14.943 0 0 1-1.14-5.732V20.33a14.943 14.943 0 0 1 1.14-5.733 14.943 14.943 0 0 1 3.247-4.86 14.943 14.943 0 0 1 4.86-3.246 14.943 14.943 0 0 1 5.732-1.14z" stroke-width=".71329"/><path d="M22.469 19.615a7.116 7.116 0 0 1-1.203 3.963 7.116 7.116 0 0 1-3.2 2.627 7.116 7.116 0 0 1-4.122.406 7.116 7.116 0 0 1-3.652-1.952 7.116 7.116 0 0 1-1.952-3.652 7.116 7.116 0 0 1 .406-4.121 7.116 7.116 0 0 1 2.627-3.201 7.116 7.116 0 0 1 3.963-1.202 7.116 7.116 0 0 1 3.962 1.202 7.116 7.116 0 0 1 2.628 3.2 7.116 7.116 0 0 1 .543 2.73z" fill="#ff8269"/><path d="M43.867 55.28a14.231 14.231 0 0 1-1.086 5.459 14.232 14.232 0 0 1-3.092 4.628 14.231 14.231 0 0 1-4.628 3.093 14.232 14.232 0 0 1-5.46 1.085 14.231 14.231 0 0 1-5.459-1.085 14.232 14.232 0 0 1-4.628-3.093 14.232 14.232 0 0 1-3.092-4.628 14.231 14.231 0 0 1-1.086-5.46 14.231 14.231 0 0 1 1.086-5.459 14.232 14.232 0 0 1 3.092-4.628 14.232 14.232 0 0 1 4.628-3.092 14.232 14.232 0 0 1 5.46-1.086A14.231 14.231 0 0 1 35.06 42.1a14.231 14.231 0 0 1 4.628 3.092 14.231 14.231 0 0 1 3.092 4.628 14.232 14.232 0 0 1 1.086 5.46z" fill="#6c747a"/><symbol id="c"><path d="M0 0v.102h.17v.47L.005.467v.108l.173.112h.13V.102h.157V0H0z"/></symbol><use xlink:href="#c" transform="matrix(15.6923 0 0 -15.6923 25.864 59.916)"/><path d="M86.664 55.28a14.231 14.231 0 0 1-1.086 5.459 14.232 14.232 0 0 1-3.092 4.628 14.232 14.232 0 0 1-4.628 3.093 14.232 14.232 0 0 1-5.46 1.085 14.231 14.231 0 0 1-5.459-1.085 14.232 14.232 0 0 1-4.628-3.093 14.232 14.232 0 0 1-3.092-4.628 14.23 14.23 0 0 1-1.086-5.46 14.232 14.232 0 0 1 1.086-5.459 14.231 14.231 0 0 1 3.092-4.628A14.232 14.232 0 0 1 66.94 42.1a14.232 14.232 0 0 1 5.46-1.086 14.231 14.231 0 0 1 5.459 1.086 14.231 14.231 0 0 1 4.628 3.092 14.232 14.232 0 0 1 3.092 4.628 14.232 14.232 0 0 1 1.086 5.46z" fill="#6c747a"/><symbol id="d"><path d="M0 0v.095A.47.47 0 0 0 .076.21C.11.248.151.287.201.328c.048.039.082.07.101.096.02.026.03.05.03.075 0 .06-.03.09-.09.09C.211.589.188.58.173.565a.124.124 0 0 1-.03-.07L.006.501a.217.217 0 0 0 .071.146c.04.033.095.05.163.05a.256.256 0 0 0 .171-.05.177.177 0 0 0 .06-.143.197.197 0 0 0-.02-.088.314.314 0 0 0-.048-.072.546.546 0 0 0-.067-.061 54.54 54.54 0 0 1-.07-.056.819.819 0 0 1-.062-.056.192.192 0 0 1-.042-.06h.32V0H0z"/></symbol><use xlink:href="#d" transform="matrix(15.6923 0 0 -15.6923 68.217 59.916)"/><path d="M43.867 98.077a14.231 14.231 0 0 1-1.086 5.46 14.23 14.23 0 0 1-3.092 4.627 14.232 14.232 0 0 1-4.628 3.093 14.233 14.233 0 0 1-5.46 1.086 14.231 14.231 0 0 1-5.459-1.086 14.232 14.232 0 0 1-4.628-3.093 14.231 14.231 0 0 1-3.092-4.628 14.231 14.231 0 0 1-1.086-5.46 14.232 14.232 0 0 1 1.086-5.458 14.231 14.231 0 0 1 3.092-4.628 14.231 14.231 0 0 1 4.628-3.093 14.232 14.232 0 0 1 5.46-1.086 14.232 14.232 0 0 1 5.459 1.086 14.232 14.232 0 0 1 4.628 3.093 14.231 14.231 0 0 1 3.092 4.628 14.232 14.232 0 0 1 1.086 5.459z" fill="#6c747a"/><symbol id="e"><path d="M.497.202a.183.183 0 0 0-.063-.15A.275.275 0 0 0 .253 0a.28.28 0 0 0-.176.05A.209.209 0 0 0 0 .199L.14.21C.148.144.186.111.252.111.285.111.311.12.33.136c.018.016.027.04.027.074 0 .031-.01.054-.033.07a.166.166 0 0 1-.098.025H.177v.111h.045C.262.416.29.424.31.44c.02.016.03.04.03.07a.09.09 0 0 1-.025.066C.301.592.278.6.248.6a.1.1 0 0 1-.07-.023.098.098 0 0 1-.03-.067L.013.52a.2.2 0 0 0 .073.14C.127.692.182.71.25.71A.262.262 0 0 0 .418.66.162.162 0 0 0 .48.527.15.15 0 0 0 .441.42.19.19 0 0 0 .333.365V.363A.197.197 0 0 0 .454.311.147.147 0 0 0 .497.202z"/></symbol><use xlink:href="#e" transform="matrix(15.6923 0 0 -15.6923 25.236 102.89)"/><path d="M86.664 98.077a14.231 14.231 0 0 1-1.086 5.46 14.231 14.231 0 0 1-3.092 4.627 14.232 14.232 0 0 1-4.628 3.093 14.233 14.233 0 0 1-5.46 1.086 14.231 14.231 0 0 1-5.459-1.086 14.232 14.232 0 0 1-4.628-3.093 14.23 14.23 0 0 1-3.092-4.628 14.23 14.23 0 0 1-1.086-5.46 14.232 14.232 0 0 1 1.086-5.458 14.23 14.23 0 0 1 3.092-4.628 14.231 14.231 0 0 1 4.628-3.093 14.232 14.232 0 0 1 5.46-1.086 14.232 14.232 0 0 1 5.459 1.086 14.232 14.232 0 0 1 4.628 3.093 14.231 14.231 0 0 1 3.092 4.628 14.232 14.232 0 0 1 1.086 5.459z" fill="#6c747a"/><symbol id="f"><path d="M.444.14V0H.313v.14H0v.103l.29.445h.154V.242h.092V.14H.444M.313.467a1.206 1.206 0 0 0 .004.097.74.74 0 0 0-.046-.08L.111.243h.202v.225z"/></symbol><use xlink:href="#f" transform="matrix(15.6923 0 0 -15.6923 67.91 102.713)"/><path d="M65.266 133.741a14.231 14.231 0 0 1-1.086 5.46 14.231 14.231 0 0 1-3.093 4.628 14.231 14.231 0 0 1-4.628 3.092A14.231 14.231 0 0 1 51 148.007a14.231 14.231 0 0 1-5.46-1.086 14.23 14.23 0 0 1-4.627-3.092 14.232 14.232 0 0 1-3.093-4.629 14.231 14.231 0 0 1-1.086-5.459 14.232 14.232 0 0 1 1.086-5.459 14.231 14.231 0 0 1 3.093-4.628 14.232 14.232 0 0 1 4.628-3.093A14.232 14.232 0 0 1 51 119.476a14.231 14.231 0 0 1 5.46 1.085 14.231 14.231 0 0 1 4.627 3.093 14.232 14.232 0 0 1 3.093 4.628 14.231 14.231 0 0 1 1.086 5.46z" fill="#6c747a"/><symbol id="g"><path d="M.498.239A.23.23 0 0 0 .429.064.26.26 0 0 0 .243 0a.272.272 0 0 0-.166.046A.203.203 0 0 0 0 .182l.137.01C.144.165.157.143.175.13a.113.113 0 0 1 .07-.02c.033 0 .06.01.08.033.021.021.031.053.031.094C.356.272.346.3.328.322a.102.102 0 0 1-.08.033.115.115 0 0 1-.094-.044H.02l.024.387h.414V.596h-.29L.158.422c.032.03.074.044.124.044.065 0 .117-.02.156-.061.04-.04.06-.096.06-.166z"/></symbol><use xlink:href="#g" transform="matrix(15.6923 0 0 -15.6923 46.757 138.53)"/></g></svg>